<svg width="200" height="200" viewBox="0 0 200 200" fill="none" xmlns="http://www.w3.org/2000/svg">
<rect x="146.118" y="7.20593" width="12.9706" height="12.9706" rx="6.48529" fill="#FB6087"/>
<rect x="92.7941" y="7.20593" width="12.9706" height="12.9706" rx="6.48529" fill="#FB6087"/>
<rect x="39.4706" y="7.20593" width="12.9706" height="12.9706" rx="6.48529" fill="#FB6087"/>
<rect y="93.0815" width="200" height="107.246" rx="14.4928" fill="#1C1720"/>
<rect x="40.9118" y="28.8235" width="11.5294" height="60.5294" rx="5.76471" fill="#FB6087"/>
<rect x="92.7941" y="28.8235" width="12.9706" height="60.5294" rx="6.48529" fill="#FB6087"/>
<rect x="146.118" y="28.8235" width="12.9706" height="60.5294" rx="6.48529" fill="#FB6087"/>
<rect y="82.9367" width="200" height="107.246" rx="14.4928" fill="#343650"/>
<path d="M150.063 4.73841C151.15 2.71113 154.056 2.71113 155.143 4.73842L158.44 10.8881C159.47 12.8083 158.079 15.1324 155.9 15.1324H149.306C147.127 15.1324 145.736 12.8083 146.766 10.8881L150.063 4.73841Z" fill="#E2E2E2"/>
<path d="M96.7391 4.73841C97.826 2.71113 100.733 2.71113 101.82 4.73842L105.117 10.8881C106.146 12.8083 104.755 15.1324 102.576 15.1324H95.9825C93.8038 15.1324 92.4128 12.8083 93.4422 10.8881L96.7391 4.73841Z" fill="#E2E2E2"/>
<path d="M43.4156 4.73841C44.5024 2.71113 47.4094 2.71113 48.4962 4.73842L51.7931 10.8881C52.8225 12.8083 51.4315 15.1324 49.2528 15.1324H42.659C40.4803 15.1324 39.0892 12.8083 40.1187 10.8881L43.4156 4.73841Z" fill="#E2E2E2"/>
<path d="M47.1005 110.742H65.3588C66.9443 110.742 68.6831 110.806 70.5755 110.934C72.4933 111.036 74.4112 111.267 76.3291 111.625C78.247 111.957 80.101 112.443 81.891 113.082C83.681 113.696 85.2665 114.514 86.6474 115.537C88.0538 116.534 89.1662 117.775 89.9845 119.258C90.8283 120.715 91.2503 122.454 91.2503 124.474C91.2503 125.676 91.1096 126.878 90.8283 128.08C90.5471 129.256 90.0356 130.343 89.294 131.34C88.578 132.338 87.5807 133.207 86.3021 133.949C85.0491 134.69 83.4381 135.215 81.4691 135.521C83.6171 135.649 85.5222 136.148 87.1844 137.017C88.8721 137.861 90.2913 138.922 91.4421 140.201C92.5928 141.48 93.4622 142.899 94.0504 144.459C94.6641 145.993 94.971 147.515 94.971 149.023C94.971 151.044 94.5618 153.013 93.7435 154.93C92.9252 156.823 91.5444 158.523 89.6009 160.032C87.683 161.515 85.1386 162.717 81.9677 163.638C78.7968 164.533 74.8587 164.98 70.1535 164.98H47.1005V110.742ZM64.2848 155.161H71.2275C73.4267 155.161 75.0633 154.598 76.1373 153.473C77.2369 152.322 77.7867 150.839 77.7867 149.023C77.7867 147.949 77.5949 147.029 77.2113 146.262C76.8533 145.494 76.1757 144.868 75.1784 144.382C74.1811 143.871 72.8002 143.5 71.0358 143.27C69.2969 143.014 67.0465 142.886 64.2848 142.886V155.161ZM69.6549 133.067C70.8568 133.067 71.9563 132.9 72.9536 132.568C73.9509 132.21 74.8076 131.75 75.5236 131.187C76.2396 130.624 76.7894 129.972 77.173 129.231C77.5821 128.489 77.7867 127.722 77.7867 126.929C77.7867 125.702 77.5438 124.692 77.0579 123.899C76.5721 123.106 75.7921 122.48 74.7181 122.02C73.6441 121.559 72.2504 121.24 70.5371 121.061C68.8238 120.882 66.7397 120.792 64.2848 120.792V133.067H69.6549ZM106.555 164.98V110.742H125.427C130.081 110.742 134.262 111.292 137.97 112.392C141.678 113.466 144.81 115.115 147.368 117.34C149.95 119.539 151.919 122.314 153.275 125.663C154.656 128.988 155.346 132.9 155.346 137.401C155.346 140.828 154.988 143.896 154.272 146.607C153.582 149.292 152.584 151.657 151.28 153.703C150.002 155.749 148.442 157.488 146.6 158.92C144.785 160.326 142.765 161.49 140.54 162.41C138.315 163.305 135.911 163.957 133.329 164.366C130.772 164.776 128.086 164.98 125.274 164.98H106.555ZM123.739 152.706H124.89C126.885 152.706 128.7 152.527 130.337 152.169C131.973 151.785 133.367 151.044 134.518 149.944C135.694 148.844 136.589 147.297 137.203 145.303C137.842 143.308 138.162 140.674 138.162 137.401C138.162 134.435 137.881 131.967 137.318 129.998C136.755 128.003 135.924 126.418 134.825 125.242C133.725 124.04 132.37 123.196 130.759 122.71C129.148 122.199 127.307 121.943 125.235 121.943H123.739V152.706Z" fill="#E2E2E2"/>
</svg>
